<svg xmlns="http://www.w3.org/2000/svg" style="display:none" aria-hidden="true">
  <symbol id="bars" viewBox="0 0 24 24"><path fill="currentColor" d="M3 5.5a1 1 0 0 1 1-1h16a1 1 0 1 1 0 2H4a1 1 0 0 1-1-1zm0 6.5a1 1 0 0 1 1-1h16a1 1 0 1 1 0 2H4a1 1 0 0 1-1-1zm1 5.5a1 1 0 1 0 0 2h16a1 1 0 1 0 0-2H4z"/></symbol>
  <symbol id="chevron-down" viewBox="0 0 24 24"><path fill="currentColor" d="M12 15.2a1 1 0 0 1-.7-.29l-5-5a1 1 0 1 1 1.4-1.41L12 12.8l4.3-4.3a1 1 0 1 1 1.4 1.4l-5 5a1 1 0 0 1-.7.3z"/></symbol>
  <symbol id="chevron-up" viewBox="0 0 24 24"><path fill="currentColor" d="M7 15.5a1 1 0 0 1-.7-1.71l5-5a1 1 0 0 1 1.4 0l5 5a1 1 0 1 1-1.4 1.41L12 11.01 7.7 15.3a1 1 0 0 1-.7.2z"/></symbol>
  <symbol id="chevron-left" viewBox="0 0 24 24"><path fill="currentColor" d="M14.7 17.7a1 1 0 0 1-1.4 0l-5-5a1 1 0 0 1 0-1.4l5-5a1 1 0 1 1 1.4 1.4L10.41 12l4.3 4.3a1 1 0 0 1 0 1.4z"/></symbol>
  <symbol id="chevron-right" viewBox="0 0 24 24"><path fill="currentColor" d="M9.3 17.7a1 1 0 0 1 0-1.4l4.3-4.3-4.3-4.3a1 1 0 1 1 1.4-1.4l5 5a1 1 0 0 1 0 1.4l-5 5a1 1 0 0 1-1.4 0z"/></symbol>
  <symbol id="angles-right" viewBox="0 0 24 24"><path fill="currentColor" d="M7.7 6.3a1 1 0 0 1 1.4 0l5 5a1 1 0 0 1 0 1.4l-5 5a1 1 0 1 1-1.4-1.4L12 12 7.7 7.7a1 1 0 0 1 0-1.4zm6 0a1 1 0 0 1 1.4 0l5 5a1 1 0 0 1 0 1.4l-5 5a1 1 0 1 1-1.4-1.4L18 12l-4.3-4.3a1 1 0 0 1 0-1.4z"/></symbol>
  <symbol id="house" viewBox="0 0 24 24"><path fill="currentColor" d="M12 3L2 12h3v9h6v-6h2v6h6v-9h3L12 3z"/></symbol>
  <symbol id="gamepad" viewBox="0 0 24 24"><path fill="currentColor" d="M8 14H6v2H4v-2H2v-2h2v-2h2v2h2v2zm8.5-2c0 .83-.67 1.5-1.5 1.5S13 12.83 13 12s.67-1.5 1.5-1.5 1.5.67 1.5 1.5zm3 0c0 .83-.67 1.5-1.5 1.5S16 12.83 16 12s.67-1.5 1.5-1.5 1.5.67 1.5 1.5zM17.5 8H6.5C5.12 8 4 9.12 4 10.5v3C4 14.88 5.12 16 6.5 16h11c1.38 0 2.5-1.12 2.5-2.5v-3C20 9.12 18.88 8 17.5 8z"/></symbol>
  <symbol id="circle-question" viewBox="0 0 24 24"><path fill="currentColor" d="M12 2C6.48 2 2 6.48 2 12s4.48 10 10 10 10-4.48 10-10S17.52 2 12 2zm1 17h-2v-2h2v2zm2.07-7.75l-.9.92C13.45 12.9 13 13.5 13 15h-2v-.5c0-1.1.45-2.1 1.17-2.83l1.24-1.26c.37-.36.59-.86.59-1.41 0-1.1-.9-2-2-2s-2 .9-2 2H8c0-2.21 1.79-4 4-4s4 1.79 4 4c0 .88-.36 1.68-.93 2.25z"/></symbol>
  <symbol id="gear" viewBox="0 0 24 24"><path fill="currentColor" d="M19.14 12.94c.04-.31.06-.63.06-.94s-.02-.63-.06-.94l2.03-1.58a.5.5 0 0 0 .12-.64l-1.92-3.32a.5.5 0 0 0-.6-.22l-2.39.96c-.5-.38-1.05-.7-1.65-.94l-.36-2.54a.5.5 0 0 0-.5-.42h-3.84a.5.5 0 0 0-.5.42l-.36 2.54c-.6.24-1.15.56-1.65.94l-2.39-.96a.5.5 0 0 0-.6.22L2.71 8.84a.5.5 0 0 0 .12.64l2.03 1.58c-.04.31-.06.63-.06.94s.02.63.06.94l-2.03 1.58a.5.5 0 0 0-.12.64l1.92 3.32a.5.5 0 0 0 .6.22l2.39-.96c.5.38 1.05.7 1.65.94l.36 2.54a.5.5 0 0 0 .5.42h3.84a.5.5 0 0 0 .5-.42l.36-2.54c.6-.24 1.15-.56 1.65-.94l2.39.96a.5.5 0 0 0 .6-.22l1.92-3.32a.5.5 0 0 0-.12-.64l-2.03-1.58zM12 15.5A3.5 3.5 0 1 1 12 8.5a3.5 3.5 0 0 1 0 7z"/></symbol>
  <symbol id="headset" viewBox="0 0 24 24"><path fill="currentColor" d="M12 1a9 9 0 0 0-9 9v7c0 1.66 1.34 3 3 3h1v-8H5c-.55 0-1-.45-1-1 0-4.42 3.58-8 8-8s8 3.58 8 8c0 .55-.45 1-1 1h-2v8h1c1.66 0 3-1.34 3-3v-7a9 9 0 0 0-9-9z"/></symbol>
  <symbol id="users" viewBox="0 0 24 24"><path fill="currentColor" d="M16 11c1.66 0 2.99-1.34 2.99-3S17.66 5 16 5c-1.66 0-3 1.34-3 3s1.34 3 3 3zm-8 0c1.66 0 2.99-1.34 2.99-3S9.66 5 8 5C6.34 5 5 6.34 5 8s1.34 3 3 3zm0 2c-2.33 0-7 1.17-7 3.5V19h14v-2.5c0-2.33-4.67-3.5-7-3.5zm8 0c-.29 0-.62.02-.97.05 1.16.84 1.97 1.97 1.97 3.45V19h6v-2.5c0-2.33-4.67-3.5-7-3.5z"/></symbol>
  <symbol id="rss" viewBox="0 0 24 24"><path fill="currentColor" d="M6.18 15.64a2.18 2.18 0 0 1 2.18 2.18C8.36 19 7.38 20 6.18 20 5 20 4 19 4 17.82a2.18 2.18 0 0 1 2.18-2.18M4 4.44A15.9 15.9 0 0 1 19.56 20h-2.08A13.82 13.82 0 0 0 4 6.52V4.44m0 5.66a9.56 9.56 0 0 1 9.56 9.56h-2.08A7.48 7.48 0 0 0 4 11.94v-1.84z"/></symbol>
  <symbol id="share-nodes" viewBox="0 0 24 24"><path fill="currentColor" d="M18 16.08c-.76 0-1.44.3-1.96.77L8.91 11.7c.05-.23.09-.46.09-.7s-.04-.47-.09-.7l7.05-5.11c.54.5 1.25.81 2.04.81 1.66 0 3-1.34 3-3s-1.34-3-3-3-3 1.34-3 3c0 .24.04.47.09.7L8.04 9.81C7.5 9.31 6.79 9 6 9c-1.66 0-3 1.34-3 3s1.34 3 3 3c.79 0 1.5-.31 2.04-.81l7.12 5.16c-.05.21-.08.43-.08.65 0 1.61 1.31 2.92 2.92 2.92s2.92-1.31 2.92-2.92-1.31-2.92-2.92-2.92z"/></symbol>
  <symbol id="star" viewBox="0 0 24 24"><path fill="currentColor" d="M12 17.27L18.18 21l-1.64-7.03L22 9.24l-7.19-.61L12 2 9.19 8.63 2 9.24l5.46 4.73L5.82 21 12 17.27z" opacity=".35"/></symbol>
  <symbol id="star-filled" viewBox="0 0 24 24"><path fill="currentColor" d="M12 17.27L18.18 21l-1.64-7.03L22 9.24l-7.19-.61L12 2 9.19 8.63 2 9.24l5.46 4.73L5.82 21 12 17.27z"/></symbol>
  <symbol id="heart" viewBox="0 0 24 24"><path fill="currentColor" d="M16.5 3c-1.74 0-3.41.81-4.5 2.09C10.91 3.81 9.24 3 7.5 3 4.42 3 2 5.42 2 8.5c0 5.24 7.25 10.13 10 12.5 2.75-2.37 10-7.26 10-12.5C22 5.42 19.58 3 16.5 3zm0 2c1.24 0 2.25 1.01 2.25 2.25 0 3.9-5.05 7.62-6.75 8.87-1.7-1.25-6.75-4.97-6.75-8.87C5.25 6.01 6.26 5 7.5 5c1.06 0 2.07.65 2.57 1.61L12 9.89l2.93-3.28C15.43 5.65 16.44 5 17.5 5z"/></symbol>
  <symbol id="heart-filled" viewBox="0 0 24 24"><path fill="currentColor" d="M12 21.35l-1.45-1.32C5.4 15.36 2 12.28 2 8.5 2 5.42 4.42 3 7.5 3c1.74 0 3.41.81 4.5 2.09C13.09 3.81 14.76 3 16.5 3 19.58 3 22 5.42 22 8.5c0 3.78-3.4 6.86-8.55 11.54L12 21.35z"/></symbol>
  <symbol id="play" viewBox="0 0 24 24"><path fill="currentColor" d="M8 5v14l11-7L8 5z"/></symbol>
  <symbol id="mobile" viewBox="0 0 24 24"><path fill="currentColor" d="M17 1H7c-1.1 0-2 .9-2 2v18c0 1.1.9 2 2 2h10c1.1 0 2-.9 2-2V3c0-1.1-.9-2-2-2zm0 18H7V5h10v14z"/></symbol>
  <symbol id="laptop" viewBox="0 0 24 24"><path fill="currentColor" d="M20 18H4V6h16v12zm0-14H4c-1.1 0-2 .9-2 2v12c0 1.1.9 2 2 2h16c1.1 0 2-.9 2-2V6c0-1.1-.9-2-2-2zm-2 14H6v-2h12v2z"/></symbol>
  <symbol id="microchip" viewBox="0 0 24 24"><path fill="currentColor" d="M9 3V1h2v2h2V1h2v2h2v2h2v2h-2v2h2v2h-2v2h2v2h-2v2h-2v-2H9v2H7v-2H5v-2h2v-2H5v-2h2V9H5V7h2V5H5V3h2V1h2v2h2zm2 4H9v8h2V7zm4 0h-2v8h2V7z"/></symbol>
  <symbol id="keyboard" viewBox="0 0 24 24"><path fill="currentColor" d="M20 5H4c-1.1 0-2 .9-2 2v10c0 1.1.9 2 2 2h16c1.1 0 2-.9 2-2V7c0-1.1-.9-2-2-2zm-9 3h2v2h-2V8zm-4 0h2v2H7V8zM5 8h2v2H5V8zm12 6H7v-2h10v2zm4-4h-2v2h2v-2zm-4 0h-2v2h2v-2zm-4 0H9v2h2v-2z"/></symbol>
  <symbol id="hand-pointer" viewBox="0 0 24 24"><path fill="currentColor" d="M13 1.07V9h7V1.07C19.55.48 18.3 0 17 0c-1.3 0-2.55.48-4 1.07zM4 10c0 2.21 1.79 4 4 4h1v7c0 1.1.9 2 2 2s2-.9 2-2v-8h1l2-6H9V4H4v6z"/></symbol>
  <symbol id="facebook" viewBox="0 0 24 24"><path fill="currentColor" d="M24 12.073C24 5.405 18.627 0 12 0S0 5.405 0 12.073C0 18.1 4.388 23.094 10.125 24v-8.437H7.078v-3.49h3.047V9.43c0-3.007 1.792-4.669 4.533-4.669 1.312 0 2.686.235 2.686.235v2.953H15.83c-1.491 0-1.956.925-1.956 1.874v2.25h3.328l-.532 3.49h-2.796V24C19.612 23.094 24 18.1 24 12.073z"/></symbol>
  <symbol id="x-twitter" viewBox="0 0 24 24"><path fill="currentColor" d="M18.244 2.25h3.308l-7.227 8.26 8.502 11.24H16.17l-5.214-6.817L4.99 21.75H1.68l7.73-8.835L1.254 2.25H8.08l4.713 6.231 5.45-6.231zm-1.161 17.52h1.833L7.084 4.126H5.117l11.966 15.644z"/></symbol>
  <symbol id="tiktok" viewBox="0 0 24 24"><path fill="currentColor" d="M19.59 6.69a4.83 4.83 0 0 1-3.77-4.25V2h-3.45v13.67a2.89 2.89 0 0 1-2.88 2.5 2.89 2.89 0 0 1-2.89-2.89 2.89 2.89 0 0 1 2.89-2.89c.28 0 .54.04.79.1V9.01a6.27 6.27 0 0 0-.79-.05 6.34 6.34 0 0 0-6.34 6.34 6.34 6.34 0 0 0 6.34 6.34 6.34 6.34 0 0 0 6.33-6.34V8.69a8.18 8.18 0 0 0 4.77 1.52V6.76a4.85 4.85 0 0 1-1-.07z"/></symbol>
  <symbol id="instagram" viewBox="0 0 24 24"><path fill="currentColor" d="M12 2.163c3.204 0 3.584.012 4.85.07 1.366.062 2.633.334 3.608 1.308.974.974 1.246 2.241 1.308 3.608.058 1.266.07 1.646.07 4.85s-.012 3.584-.07 4.85c-.062 1.366-.334 2.633-1.308 3.608-.974.974-2.241 1.246-3.608 1.308-1.266.058-1.646.07-4.85.07s-3.584-.012-4.85-.07c-1.366-.062-2.633-.334-3.608-1.308-.974-.974-1.246-2.241-1.308-3.608C2.175 15.747 2.163 15.367 2.163 12s.012-3.584.07-4.85c.062-1.366.334-2.633 1.308-3.608.974-.974 2.241-1.246 3.608-1.308C8.416 2.175 8.796 2.163 12 2.163zm0-2.163C8.741 0 8.332.014 7.052.072 5.775.13 4.602.402 3.635 1.37 2.668 2.337 2.396 3.51 2.338 4.787.28 6.067.266 6.476.266 12c0 5.524.014 5.933.072 7.213.058 1.277.33 2.45 1.297 3.417.967.967 2.14 1.239 3.417 1.297 1.28.058 1.689.072 7.213.072s5.933-.014 7.213-.072c1.277-.058 2.45-.33 3.417-1.297.967-.967 1.239-2.14 1.297-3.417.058-1.28.072-1.689.072-7.213s-.014-5.933-.072-7.213c-.058-1.277-.33-2.45-1.297-3.417C21.398.402 20.225.13 18.948.072 17.668.014 17.259 0 12 0zm0 5.838a6.162 6.162 0 1 0 0 12.324 6.162 6.162 0 0 0 0-12.324zM12 16a4 4 0 1 1 0-8 4 4 0 0 1 0 8zm6.406-11.845a1.44 1.44 0 1 0 0 2.881 1.44 1.44 0 0 0 0-2.881z"/></symbol>
  <symbol id="bolt" viewBox="0 0 24 24"><path fill="currentColor" d="M11 21h-1l1-7H7.5c-.58 0-.57-.32-.38-.66.19-.34.05-.08 3.65-6.69.22-.31.55-.52.95-.52h3.76l-1 7h3.51c.49 0 .56.33.47.51l-.07.15L12 21z"/></symbol>
  <symbol id="puzzle" viewBox="0 0 24 24"><path fill="currentColor" d="M20.5 11H19V7c0-1.1-.9-2-2-2h-4V3.5C13 2.12 11.88 1 10.5 1S8 2.12 8 3.5V5H4c-1.1 0-2 .9-2 2v3.5H3.5C2.12 11 1 12.12 1 13.5S2.12 16 3.5 16H2v3c0 1.1.9 2 2 2h3.5v-1.5c0 1.38 1.12 2.5 2.5 2.5s2.5-1.12 2.5-2.5V21h4c1.1 0 2-.9 2-2v-4h1.5c1.38 0 2.5-1.12 2.5-2.5S21.88 11 20.5 11z"/></symbol>
  <symbol id="shapes" viewBox="0 0 24 24"><path fill="currentColor" d="M11 2 4 5v6.09c0 5.05 3.41 9.76 8 10.91 4.59-1.15 8-5.86 8-10.91V5l-7-3zm-1 14.5V18H8v-1.5h2zm0-3V12H8V9h2v4.5zm4 3V18h-2v-1.5h2zm0-3V12h-2V9h2v4.5z"/></symbol>
  <symbol id="running" viewBox="0 0 24 24"><path fill="currentColor" d="M13.5 5.5c1.1 0 2-.9 2-2s-.9-2-2-2-2 .9-2 2 .9 2 2 2zm-3.5 3.7 1.9 3.6 2.8-1.1.7 1.4-4.5 1.8-2.3-4.4-3.2 2.5.7 1.4-4.3 3.3L2 14.1l1.4.7 4.3-3.3 2.3 4.4 4.5-1.8-.7-1.4-2.8 1.1-1.9-3.6 3.5-2.8-.7-1.4z"/></symbol>
  <symbol id="crosshairs" viewBox="0 0 24 24"><path fill="currentColor" d="M12 8c-2.21 0-4 1.79-4 4s1.79 4 4 4 4-1.79 4-4-1.79-4-4-4zm8.94 3A8.994 8.994 0 0 0 13 3.06V1h-2v2.06A8.994 8.994 0 0 0 3.06 11H1v2h2.06A8.994 8.994 0 0 0 11 20.94V23h2v-2.06A8.994 8.994 0 0 0 20.94 13H23v-2h-2.06zM12 19c-3.87 0-7-3.13-7-7s3.13-7 7-7 7 3.13 7 7-3.13 7-7 7z"/></symbol>
  <symbol id="wand" viewBox="0 0 24 24"><path fill="currentColor" d="M7.5 5.6 10 2 12 4.5 9.5 8 7.5 5.6zm12.9 12.1-1.4 1.4-9.2-9.2 1.4-1.4 9.2 9.2zM22 2l-2 2-2-2 2-2 2 2zm-6 4 2 2-2 2-2-2 2-2zM4 18l2 2-2 2-2-2 2-2z"/></symbol>
  <symbol id="ghost" viewBox="0 0 24 24"><path fill="currentColor" d="M12 2C7.03 2 3 6.03 3 11v9.5c0 .83.67 1.5 1.5 1.5.83 0 1.5-.67 1.5-1.5 0 .83.67 1.5 1.5 1.5s1.5-.67 1.5-1.5c0 .83.67 1.5 1.5 1.5s1.5-.67 1.5-1.5c0 .83.67 1.5 1.5 1.5s1.5-.67 1.5-1.5V11c0-4.97-4.03-9-9-9zm-1 14H8v-2h3v2zm5 0h-3v-2h3v2z"/></symbol>
  <symbol id="dice" viewBox="0 0 24 24"><path fill="currentColor" d="M19 3H5c-1.1 0-2 .9-2 2v14c0 1.1.9 2 2 2h14c1.1 0 2-.9 2-2V5c0-1.1-.9-2-2-2zM7.5 18C6.67 18 6 17.33 6 16.5S6.67 15 7.5 15s1.5.67 1.5 1.5S8.33 18 7.5 18zm0-9C6.67 9 6 8.33 6 7.5S6.67 6 7.5 6 9 6.67 9 7.5 8.33 9 7.5 9zm4.5 4.5c-.83 0-1.5-.67-1.5-1.5s.67-1.5 1.5-1.5 1.5.67 1.5 1.5-.67 1.5-1.5 1.5zm4.5 4.5c-.83 0-1.5-.67-1.5-1.5s.67-1.5 1.5-1.5 1.5.67 1.5 1.5-.67 1.5-1.5 1.5zm0-9c-.83 0-1.5-.67-1.5-1.5S15.67 6 16.5 6s1.5.67 1.5 1.5S17.33 9 16.5 9z"/></symbol>
  <symbol id="trophy" viewBox="0 0 24 24"><path fill="currentColor" d="M19 5h-2V3H7v2H5c-1.1 0-2 .9-2 2v1c0 2.55 1.92 4.63 4.39 4.94.63 1.5 1.98 2.63 3.61 2.96V19H7v2h10v-2h-4v-3.1c1.63-.33 2.98-1.46 3.61-2.96C19.08 12.63 21 10.55 21 8V7c0-1.1-.9-2-2-2zM5 8V7h2v3.82C5.84 10.4 5 9.3 5 8zm14 0c0 1.3-.84 2.4-2 2.82V7h2v1z"/></symbol>
  <symbol id="key" viewBox="0 0 24 24"><path fill="currentColor" d="M12.65 10A5.99 5.99 0 0 0 7 6c-3.31 0-6 2.69-6 6s2.69 6 6 6a5.99 5.99 0 0 0 4.65-2.35l4.35 4.35 1.41-1.41-4.35-4.35zM7 14c-1.1 0-2-.9-2-2s.9-2 2-2 2 .9 2 2-.9 2-2 2zm13-6h-2v-2h-2v2h-2v2h2v2h2v-2h2v-2z"/></symbol>
  <symbol id="compass" viewBox="0 0 24 24"><path fill="currentColor" d="M12 2C6.48 2 2 6.48 2 12s4.48 10 10 10 10-4.48 10-10S17.52 2 12 2zm3.5 6L12 10.5 8.5 8 12 5.5 15.5 8zM8.5 16 12 13.5 15.5 16 12 18.5 8.5 16z"/></symbol>
  <symbol id="rook" viewBox="0 0 24 24"><path fill="currentColor" d="M18 14H6v-2h12v2zm-2 4H8v-2h8v2zm2-12H6V4h12v2z"/></symbol>
  <symbol id="car" viewBox="0 0 24 24"><path fill="currentColor" d="M18.92 6.01C18.72 5.42 18.16 5 17.5 5h-11c-.66 0-1.21.42-1.42 1.01L3 12v8c0 .55.45 1 1 1h1c.55 0 1-.45 1-1v-1h12v1c0 .55.45 1 1 1h1c.55 0 1-.45 1-1v-8l-2.08-5.99zM6.5 16c-.83 0-1.5-.67-1.5-1.5S5.67 13 6.5 13s1.5.67 1.5 1.5S7.33 16 6.5 16zm11 0c-.83 0-1.5-.67-1.5-1.5s.67-1.5 1.5-1.5 1.5.67 1.5 1.5-.67 1.5-1.5 1.5zM5 11l1.5-4.5h11L19 11H5z"/></symbol>
  <symbol id="vr" viewBox="0 0 24 24"><path fill="currentColor" d="M20.5 7h-17C2.12 7 1 8.12 1 9.5v5C1 15.88 2.12 17 3.5 17h17c1.38 0 2.5-1.12 2.5-2.5v-5C22 8.12 20.88 7 20.5 7zM18 14H6c-.55 0-1-.45-1-1s.45-1 1-1h12c.55 0 1 .45 1 1s-.45 1-1 1z"/></symbol>
  <symbol id="diamond" viewBox="0 0 24 24"><path fill="currentColor" d="M12 2 2 9l10 13L22 9 12 2zm0 3.5L18.5 9 12 16.5 5.5 9 12 5.5z"/></symbol>
  <symbol id="king" viewBox="0 0 24 24"><path fill="currentColor" d="M12 3L9 8H5l2.5 4L5 16h4l3 5 3-5h4l-2.5-4L19 8h-4l-3-5zm0 5.5c.83 0 1.5.67 1.5 1.5S12.83 12 12 12s-1.5-.67-1.5-1.5S11.17 9 12 9z"/></symbol>
  <symbol id="wizard" viewBox="0 0 24 24"><path fill="currentColor" d="M12 2L4 5v6.09c0 5.05 3.41 9.76 8 10.91 4.59-1.15 8-5.86 8-10.91V5l-8-3zm0 4.5L16 8v3.09c0 3.09-2.09 5.96-4 6.66-1.91-.7-4-3.57-4-6.66V8l4-1.5z"/></symbol>
  <symbol id="brain" viewBox="0 0 24 24"><path fill="currentColor" d="M12 2C8.5 2 6 4.5 6 8c0 1.2.4 2.3 1.1 3.2-.7.9-1.1 2-1.1 3.3 0 2.8 2.2 5 5 5h2c2.8 0 5-2.2 5-5 0-1.3-.4-2.4-1.1-3.3.7-.9 1.1-2 1.1-3.2 0-3.5-2.5-6-6-6zm-2 14H8c-1.7 0-3-1.3-3-3 0-1 .5-1.9 1.3-2.5.3 2.2 2.2 4 4.5 4h1V16zm4 0v-1.5h1c2.3 0 4.2-1.8 4.5-4 .8.6 1.3 1.5 1.3 2.5 0 1.7-1.3 3-3 3h-2z"/></symbol>
  <symbol id="music" viewBox="0 0 24 24"><path fill="currentColor" d="M12 3v10.55c-.59-.34-1.27-.55-2-.55-2.21 0-4 1.79-4 4s1.79 4 4 4 4-1.79 4-4V7h4V3h-6z"/></symbol>
  <symbol id="skull" viewBox="0 0 24 24"><path fill="currentColor" d="M12 2C6.48 2 2 6.48 2 12c0 2.76 1.12 5.26 2.93 7.07L3 22l2.93-1.93C7.74 21.88 9.81 22 12 22s4.26-.12 6.07-.93L21 22l-1.93-2.93C20.88 17.26 22 14.76 22 12c0-5.52-4.48-10-10-10zm-2 15c-.83 0-1.5-.67-1.5-1.5S9.17 14 10 14s1.5.67 1.5 1.5S10.83 17 10 17zm4 0c-.83 0-1.5-.67-1.5-1.5S13.17 14 14 14s1.5.67 1.5 1.5S14.83 17 14 17zm-2-5c-1.66 0-3-1.34-3-3s1.34-3 3-3 3 1.34 3 3-1.34 3-3 3z"/></symbol>
</svg>
